<svg width="149" height="25" viewBox="0 0 149 25" fill="none" xmlns="http://www.w3.org/2000/svg">
    <path
        d="M10.7557 6.77841C10.6989 6.15341 10.446 5.66761 9.99716 5.32102C9.55398 4.96875 8.92045 4.79261 8.09659 4.79261C7.55114 4.79261 7.09659 4.86364 6.73295 5.00568C6.36932 5.14773 6.09659 5.34375 5.91477 5.59375C5.73295 5.83807 5.6392 6.11932 5.63352 6.4375C5.62216 6.69886 5.6733 6.92898 5.78693 7.12784C5.90625 7.3267 6.0767 7.50284 6.2983 7.65625C6.52557 7.80398 6.7983 7.93466 7.11648 8.0483C7.43466 8.16193 7.79261 8.26136 8.19034 8.34659L9.69034 8.6875C10.554 8.875 11.3153 9.125 11.9744 9.4375C12.6392 9.75 13.196 10.1222 13.6449 10.554C14.0994 10.9858 14.4432 11.483 14.6761 12.0455C14.9091 12.608 15.0284 13.2386 15.0341 13.9375C15.0284 15.0398 14.75 15.9858 14.1989 16.7756C13.6477 17.5653 12.8551 18.1705 11.821 18.5909C10.7926 19.0114 9.55114 19.2216 8.09659 19.2216C6.63636 19.2216 5.36364 19.0028 4.27841 18.5653C3.19318 18.1278 2.34943 17.4631 1.74716 16.571C1.14489 15.679 0.835227 14.5511 0.818182 13.1875H4.85795C4.89205 13.75 5.04261 14.2188 5.30966 14.5938C5.5767 14.9688 5.94318 15.2528 6.40909 15.446C6.88068 15.6392 7.42614 15.7358 8.04545 15.7358C8.61364 15.7358 9.09659 15.6591 9.49432 15.5057C9.89773 15.3523 10.2074 15.1392 10.4233 14.8665C10.6392 14.5937 10.75 14.2812 10.7557 13.929C10.75 13.5994 10.6477 13.3182 10.4489 13.0852C10.25 12.8466 9.94318 12.642 9.52841 12.4716C9.11932 12.2955 8.59659 12.1335 7.96023 11.9858L6.13636 11.5597C4.625 11.2131 3.43466 10.6534 2.56534 9.88068C1.69602 9.10227 1.2642 8.05114 1.26989 6.72727C1.2642 5.64773 1.55398 4.7017 2.1392 3.8892C2.72443 3.0767 3.53409 2.44318 4.56818 1.98864C5.60227 1.53409 6.78125 1.30682 8.10511 1.30682C9.45739 1.30682 10.6307 1.53693 11.625 1.99716C12.625 2.4517 13.4006 3.09091 13.9517 3.91477C14.5028 4.73864 14.7841 5.69318 14.7955 6.77841H10.7557ZM23.2841 19.2472C21.9148 19.2472 20.733 18.9773 19.7386 18.4375C18.75 17.892 17.9886 17.1165 17.4545 16.1108C16.9261 15.0994 16.6619 13.8977 16.6619 12.5057C16.6619 11.1534 16.929 9.97159 17.4631 8.96023C17.9972 7.94318 18.75 7.15341 19.7216 6.59091C20.6932 6.02273 21.8381 5.73864 23.1562 5.73864C24.0881 5.73864 24.9403 5.88352 25.7131 6.17329C26.4858 6.46307 27.1534 6.89205 27.7159 7.46023C28.2784 8.02841 28.7159 8.73011 29.0284 9.56534C29.3409 10.3949 29.4972 11.3466 29.4972 12.4205V13.4602H18.1193V11.0398H25.6193C25.6136 10.5966 25.5085 10.2017 25.304 9.85511C25.0994 9.50852 24.8182 9.23864 24.4602 9.04545C24.108 8.84659 23.7017 8.74716 23.2415 8.74716C22.7756 8.74716 22.358 8.85227 21.9886 9.0625C21.6193 9.26705 21.3267 9.5483 21.1108 9.90625C20.8949 10.2585 20.7813 10.6591 20.7699 11.108V13.571C20.7699 14.1051 20.875 14.5739 21.0852 14.9773C21.2955 15.375 21.5938 15.6847 21.9801 15.9062C22.3665 16.1278 22.8267 16.2386 23.3608 16.2386C23.7301 16.2386 24.0653 16.1875 24.3665 16.0852C24.6676 15.983 24.9261 15.8324 25.142 15.6335C25.358 15.4347 25.5199 15.1903 25.6278 14.9006L29.4545 15.0114C29.2955 15.8693 28.946 16.6165 28.4062 17.2528C27.8722 17.8835 27.1705 18.375 26.3011 18.7273C25.4318 19.0739 24.4261 19.2472 23.2841 19.2472ZM37.728 24.1818C36.4837 24.1818 35.4183 24.0085 34.532 23.6619C33.6456 23.3153 32.9496 22.8409 32.4439 22.2386C31.9382 21.6364 31.6342 20.9545 31.532 20.1932L35.478 19.9716C35.5518 20.2386 35.6882 20.4716 35.8871 20.6705C36.0916 20.8693 36.3558 21.0227 36.6797 21.1307C37.0092 21.2386 37.3956 21.2926 37.8388 21.2926C38.5376 21.2926 39.1143 21.1222 39.5689 20.7812C40.0291 20.446 40.2592 19.858 40.2592 19.017V16.7159H40.1143C39.9496 17.1193 39.6996 17.4801 39.3643 17.7983C39.0291 18.1165 38.6115 18.3665 38.1115 18.5483C37.6172 18.7301 37.049 18.821 36.407 18.821C35.4524 18.821 34.5774 18.5994 33.782 18.1562C32.9922 17.7074 32.3587 17.0142 31.8814 16.0767C31.4098 15.1335 31.174 13.9205 31.174 12.4375C31.174 10.9091 31.4183 9.65057 31.907 8.66193C32.3956 7.66761 33.0348 6.93182 33.8246 6.45454C34.62 5.97727 35.4751 5.73864 36.3899 5.73864C37.0774 5.73864 37.6655 5.85795 38.1541 6.09659C38.6484 6.32955 39.0547 6.63068 39.3729 7C39.6911 7.36932 39.9325 7.75284 40.0973 8.15057H40.2166V5.90909H44.3672V19.0511C44.3672 20.1591 44.0888 21.0938 43.532 21.8551C42.9751 22.6165 42.1967 23.1932 41.1967 23.5852C40.1967 23.983 39.0405 24.1818 37.728 24.1818ZM37.8558 15.7869C38.3615 15.7869 38.7933 15.6534 39.1513 15.3864C39.5092 15.1193 39.7848 14.7358 39.978 14.2358C40.1712 13.7358 40.2678 13.1364 40.2678 12.4375C40.2678 11.7273 40.1712 11.1165 39.978 10.6051C39.7905 10.0881 39.5149 9.69034 39.1513 9.41193C38.7933 9.13352 38.3615 8.99432 37.8558 8.99432C37.3388 8.99432 36.9013 9.13636 36.5433 9.42045C36.1854 9.70455 35.9126 10.1051 35.7251 10.6222C35.5433 11.1335 35.4524 11.7386 35.4524 12.4375C35.4524 13.1364 35.5462 13.7358 35.7337 14.2358C35.9212 14.7358 36.1911 15.1193 36.5433 15.3864C36.9013 15.6534 37.3388 15.7869 37.8558 15.7869ZM53.1435 19.2472C51.7741 19.2472 50.5923 18.9773 49.598 18.4375C48.6094 17.892 47.848 17.1165 47.3139 16.1108C46.7855 15.0994 46.5213 13.8977 46.5213 12.5057C46.5213 11.1534 46.7884 9.97159 47.3224 8.96023C47.8565 7.94318 48.6094 7.15341 49.581 6.59091C50.5526 6.02273 51.6974 5.73864 53.0156 5.73864C53.9474 5.73864 54.7997 5.88352 55.5724 6.17329C56.3452 6.46307 57.0128 6.89205 57.5753 7.46023C58.1378 8.02841 58.5753 8.73011 58.8878 9.56534C59.2003 10.3949 59.3565 11.3466 59.3565 12.4205V13.4602H47.9787V11.0398H55.4787C55.473 10.5966 55.3679 10.2017 55.1634 9.85511C54.9588 9.50852 54.6776 9.23864 54.3196 9.04545C53.9673 8.84659 53.5611 8.74716 53.1009 8.74716C52.6349 8.74716 52.2173 8.85227 51.848 9.0625C51.4787 9.26705 51.1861 9.5483 50.9702 9.90625C50.7543 10.2585 50.6406 10.6591 50.6293 11.108V13.571C50.6293 14.1051 50.7344 14.5739 50.9446 14.9773C51.1548 15.375 51.4531 15.6847 51.8395 15.9062C52.2259 16.1278 52.6861 16.2386 53.2202 16.2386C53.5895 16.2386 53.9247 16.1875 54.2259 16.0852C54.527 15.983 54.7855 15.8324 55.0014 15.6335C55.2173 15.4347 55.3793 15.1903 55.4872 14.9006L59.3139 15.0114C59.1548 15.8693 58.8054 16.6165 58.2656 17.2528C57.7315 17.8835 57.0298 18.375 56.1605 18.7273C55.2912 19.0739 54.2855 19.2472 53.1435 19.2472ZM61.4851 19V5.90909H65.5334V8.29545H65.6697C65.9084 7.43182 66.2976 6.78977 66.8374 6.36932C67.3771 5.94318 68.005 5.73011 68.7209 5.73011C68.9141 5.73011 69.1129 5.74432 69.3175 5.77273C69.522 5.79545 69.7124 5.83239 69.8885 5.88352V9.50568C69.6896 9.4375 69.4283 9.38352 69.1044 9.34375C68.7862 9.30398 68.5021 9.28409 68.2521 9.28409C67.7578 9.28409 67.3118 9.39489 66.9141 9.61648C66.522 9.83239 66.2124 10.1364 65.9851 10.5284C65.7635 10.9148 65.6527 11.3693 65.6527 11.892V19H61.4851ZM74.7848 19.2216C73.9496 19.2216 73.2081 19.0824 72.5604 18.804C71.9183 18.5199 71.4098 18.0937 71.0348 17.5256C70.6655 16.9517 70.4808 16.233 70.4808 15.3693C70.4808 14.642 70.6087 14.0284 70.8643 13.5284C71.12 13.0284 71.4723 12.6222 71.9212 12.3097C72.37 11.9972 72.8871 11.7614 73.4723 11.6023C74.0575 11.4375 74.6825 11.3267 75.3473 11.2699C76.0916 11.2017 76.6911 11.1307 77.1456 11.0568C77.6001 10.9773 77.9297 10.8665 78.1342 10.7244C78.3445 10.5767 78.4496 10.3693 78.4496 10.1023V10.0597C78.4496 9.62216 78.299 9.28409 77.9979 9.04545C77.6967 8.80682 77.2905 8.6875 76.7791 8.6875C76.228 8.6875 75.7848 8.80682 75.4496 9.04545C75.1143 9.28409 74.9013 9.61364 74.8104 10.0341L70.9666 9.89773C71.0803 9.10227 71.3729 8.39205 71.8445 7.76705C72.3217 7.13636 72.9751 6.64205 73.8047 6.28409C74.6399 5.92045 75.6428 5.73864 76.8132 5.73864C77.6484 5.73864 78.4183 5.83807 79.1229 6.03693C79.8274 6.23011 80.4411 6.5142 80.9638 6.8892C81.4865 7.25852 81.8899 7.71307 82.174 8.25284C82.4638 8.79261 82.6087 9.40909 82.6087 10.1023V19H78.6882V17.1761H78.5859C78.353 17.6193 78.0547 17.9943 77.6911 18.3011C77.3331 18.608 76.9098 18.8381 76.4212 18.9915C75.9382 19.1449 75.3928 19.2216 74.7848 19.2216ZM76.0717 16.4943C76.5206 16.4943 76.924 16.4034 77.282 16.2216C77.6456 16.0398 77.9354 15.7898 78.1513 15.4716C78.3672 15.1477 78.4751 14.7727 78.4751 14.3466V13.1023C78.3558 13.1648 78.2109 13.2216 78.0405 13.2727C77.8757 13.3239 77.6939 13.3722 77.495 13.4176C77.2962 13.4631 77.0916 13.5028 76.8814 13.5369C76.6712 13.571 76.4695 13.6023 76.2763 13.6307C75.8842 13.6932 75.549 13.7898 75.2706 13.9205C74.9979 14.0511 74.7876 14.2216 74.6399 14.4318C74.4979 14.6364 74.4268 14.8807 74.4268 15.1648C74.4268 15.5966 74.5803 15.9261 74.8871 16.1534C75.1996 16.3807 75.5945 16.4943 76.0717 16.4943ZM89.3246 11.5341V19H85.157V1.54545H89.1882V8.3125H89.3331C89.6286 7.50568 90.1115 6.875 90.782 6.42045C91.4581 5.96591 92.2848 5.73864 93.2621 5.73864C94.1825 5.73864 94.9837 5.94318 95.6655 6.35227C96.3473 6.75568 96.8757 7.3267 97.2507 8.06534C97.6314 8.80398 97.8189 9.66761 97.8132 10.6562V19H93.6456V11.4744C93.6513 10.7472 93.4695 10.179 93.1001 9.76989C92.7308 9.3608 92.2109 9.15625 91.5405 9.15625C91.103 9.15625 90.7166 9.25284 90.3814 9.44602C90.0518 9.63352 89.7933 9.90341 89.6058 10.2557C89.424 10.608 89.3303 11.0341 89.3246 11.5341ZM104.105 19.2216C103.27 19.2216 102.528 19.0824 101.881 18.804C101.239 18.5199 100.73 18.0937 100.355 17.5256C99.9858 16.9517 99.8011 16.233 99.8011 15.3693C99.8011 14.642 99.929 14.0284 100.185 13.5284C100.44 13.0284 100.793 12.6222 101.241 12.3097C101.69 11.9972 102.207 11.7614 102.793 11.6023C103.378 11.4375 104.003 11.3267 104.668 11.2699C105.412 11.2017 106.011 11.1307 106.466 11.0568C106.92 10.9773 107.25 10.8665 107.455 10.7244C107.665 10.5767 107.77 10.3693 107.77 10.1023V10.0597C107.77 9.62216 107.619 9.28409 107.318 9.04545C107.017 8.80682 106.611 8.6875 106.099 8.6875C105.548 8.6875 105.105 8.80682 104.77 9.04545C104.435 9.28409 104.222 9.61364 104.131 10.0341L100.287 9.89773C100.401 9.10227 100.693 8.39205 101.165 7.76705C101.642 7.13636 102.295 6.64205 103.125 6.28409C103.96 5.92045 104.963 5.73864 106.134 5.73864C106.969 5.73864 107.739 5.83807 108.443 6.03693C109.148 6.23011 109.761 6.5142 110.284 6.8892C110.807 7.25852 111.21 7.71307 111.494 8.25284C111.784 8.79261 111.929 9.40909 111.929 10.1023V19H108.009V17.1761H107.906C107.673 17.6193 107.375 17.9943 107.011 18.3011C106.653 18.608 106.23 18.8381 105.741 18.9915C105.259 19.1449 104.713 19.2216 104.105 19.2216ZM105.392 16.4943C105.841 16.4943 106.244 16.4034 106.602 16.2216C106.966 16.0398 107.256 15.7898 107.472 15.4716C107.688 15.1477 107.795 14.7727 107.795 14.3466V13.1023C107.676 13.1648 107.531 13.2216 107.361 13.2727C107.196 13.3239 107.014 13.3722 106.815 13.4176C106.616 13.4631 106.412 13.5028 106.202 13.5369C105.991 13.571 105.79 13.6023 105.597 13.6307C105.205 13.6932 104.869 13.7898 104.591 13.9205C104.318 14.0511 104.108 14.2216 103.96 14.4318C103.818 14.6364 103.747 14.8807 103.747 15.1648C103.747 15.5966 103.901 15.9261 104.207 16.1534C104.52 16.3807 104.915 16.4943 105.392 16.4943ZM114.477 19V1.54545H118.645V8.15057H118.73C118.901 7.75284 119.142 7.36932 119.455 7C119.773 6.63068 120.176 6.32955 120.665 6.09659C121.159 5.85795 121.75 5.73864 122.438 5.73864C123.347 5.73864 124.196 5.97727 124.986 6.45454C125.781 6.93182 126.423 7.66761 126.912 8.66193C127.401 9.65625 127.645 10.9233 127.645 12.4631C127.645 13.946 127.409 15.1875 126.938 16.1875C126.472 17.1875 125.841 17.9375 125.045 18.4375C124.256 18.9375 123.378 19.1875 122.412 19.1875C121.753 19.1875 121.182 19.0795 120.699 18.8636C120.216 18.6477 119.81 18.3636 119.48 18.0114C119.156 17.6591 118.906 17.2812 118.73 16.8778H118.602V19H114.477ZM118.56 12.4545C118.56 13.1591 118.653 13.7727 118.841 14.2955C119.034 14.8182 119.31 15.2244 119.668 15.5142C120.031 15.7983 120.466 15.9403 120.972 15.9403C121.483 15.9403 121.918 15.7983 122.276 15.5142C122.634 15.2244 122.903 14.8182 123.085 14.2955C123.273 13.7727 123.366 13.1591 123.366 12.4545C123.366 11.75 123.273 11.1392 123.085 10.6222C122.903 10.1051 122.634 9.70455 122.276 9.42045C121.923 9.13636 121.489 8.99432 120.972 8.99432C120.46 8.99432 120.026 9.13352 119.668 9.41193C119.31 9.69034 119.034 10.0881 118.841 10.6051C118.653 11.1222 118.56 11.7386 118.56 12.4545ZM129.829 19V5.90909H133.996V19H129.829ZM131.917 4.38352C131.332 4.38352 130.829 4.19034 130.408 3.80398C129.988 3.41193 129.778 2.94034 129.778 2.3892C129.778 1.84375 129.988 1.37784 130.408 0.991477C130.829 0.599431 131.332 0.403408 131.917 0.403408C132.508 0.403408 133.011 0.599431 133.425 0.991477C133.846 1.37784 134.056 1.84375 134.056 2.3892C134.056 2.94034 133.846 3.41193 133.425 3.80398C133.011 4.19034 132.508 4.38352 131.917 4.38352ZM148.078 9.90625L144.251 10.0085C144.212 9.7358 144.104 9.49432 143.928 9.28409C143.751 9.06818 143.521 8.90057 143.237 8.78125C142.959 8.65625 142.635 8.59375 142.266 8.59375C141.783 8.59375 141.371 8.69034 141.03 8.88352C140.695 9.0767 140.53 9.33807 140.536 9.66761C140.53 9.9233 140.632 10.1449 140.842 10.3324C141.058 10.5199 141.442 10.6705 141.993 10.7841L144.516 11.2614C145.822 11.5114 146.794 11.9261 147.43 12.5057C148.072 13.0852 148.396 13.8523 148.402 14.8068C148.396 15.7045 148.129 16.4858 147.601 17.1506C147.078 17.8153 146.362 18.3324 145.453 18.7017C144.544 19.0653 143.504 19.2472 142.334 19.2472C140.464 19.2472 138.99 18.8636 137.911 18.0966C136.837 17.3239 136.223 16.2898 136.07 14.9943L140.186 14.892C140.277 15.3693 140.513 15.733 140.893 15.983C141.274 16.233 141.76 16.358 142.351 16.358C142.885 16.358 143.32 16.2585 143.655 16.0597C143.99 15.8608 144.161 15.5966 144.166 15.267C144.161 14.9716 144.03 14.7358 143.774 14.5597C143.518 14.3778 143.118 14.2358 142.572 14.1335L140.288 13.6989C138.976 13.4602 137.999 13.0199 137.357 12.3778C136.714 11.7301 136.396 10.9062 136.402 9.90625C136.396 9.03125 136.629 8.28409 137.101 7.66477C137.572 7.03977 138.243 6.5625 139.112 6.23295C139.982 5.90341 141.007 5.73864 142.189 5.73864C143.962 5.73864 145.359 6.1108 146.382 6.85511C147.405 7.59375 147.97 8.6108 148.078 9.90625Z"
        fill="#046C4E" />
</svg>